<?xml version="1.0"?>
<svg xmlns="http://www.w3.org/2000/svg" id="Layer_5" enable-background="new 0 0 64 64" height="512px" viewBox="0 0 64 64" width="512px"><g><path d="m51 37.051v-3.051c0-1.654-1.346-3-3-3h-15v-4h14c3.86 0 7-3.141 7-7 0-3.5-2.582-6.408-6-6.917 0-.027 0-.056 0-.083 0-4.411-3.589-8-8-8-1.383 0-2.685.353-3.821.974-2.024-3.084-5.44-4.974-9.179-4.974-6.065 0-11 4.935-11 11 0 .359.025.715.06 1.071-3.416.462-6.06 3.389-6.06 6.929 0 3.859 3.14 7 7 7h14v4h-16c-1.654 0-3 1.346-3 3v1h-8c-1.654 0-3 1.346-3 3v2c0 1.383.945 2.539 2.22 2.884-.139.346-.22.721-.22 1.116s.081.77.22 1.116c-1.275.345-2.22 1.501-2.22 2.884v2c0 1.383.945 2.539 2.22 2.884-.139.346-.22.721-.22 1.116s.081.77.22 1.116c-1.275.345-2.22 1.501-2.22 2.884v2c0 1.654 1.346 3 3 3h18c1.654 0 3-1.346 3-3v-2c0-1.383-.945-2.539-2.22-2.884.139-.346.22-.721.22-1.116s-.081-.77-.22-1.116c1.275-.346 2.22-1.501 2.22-2.884v-2c0-1.383-.945-2.539-2.22-2.884.139-.346.22-.721.22-1.116s-.081-.77-.22-1.116c1.275-.346 2.22-1.501 2.22-2.884v-2c0-1.654-1.346-3-3-3h-8v-1c0-.552.449-1 1-1h33c.551 0 1 .448 1 1v3.051c-6.701.514-12 6.119-12 12.949 0 7.168 5.832 13 13 13s13-5.832 13-13c0-6.83-5.299-12.435-12-12.949zm-39-17.051c0-2.757 2.243-5 5-5s5 2.243 5 5h2c0-3.495-2.578-6.392-5.93-6.909-.044-.361-.07-.725-.07-1.091 0-4.963 4.038-9 9-9 3.091 0 5.911 1.58 7.561 4.151-1.571 1.461-2.561 3.539-2.561 5.849h2c0-3.309 2.691-6 6-6s6 2.691 6 6c0 .257-.022.53-.07.861l-.084 1.139h1.154c2.757 0 5 2.243 5 5s-2.243 5-5 5h-30c-2.757 0-5-2.243-5-5zm9 24c0 .552-.449 1-1 1h-14c-.551 0-1-.448-1-1s.449-1 1-1h14c.551 0 1 .448 1 1zm0 10c0 .552-.449 1-1 1h-14c-.551 0-1-.448-1-1s.449-1 1-1h14c.551 0 1 .448 1 1zm2 6c0 .552-.449 1-1 1h-18c-.551 0-1-.448-1-1v-2c0-.552.449-1 1-1h2 14 2c.551 0 1 .448 1 1zm0-10c0 .552-.449 1-1 1h-2-14-2c-.551 0-1-.448-1-1v-2c0-.552.449-1 1-1h2 14 2c.551 0 1 .448 1 1zm0-12v2c0 .552-.449 1-1 1h-2-14-2c-.551 0-1-.448-1-1v-2c0-.552.449-1 1-1h18c.551 0 1 .448 1 1zm27 1c6.065 0 11 4.935 11 11 0 2.27-.692 4.381-1.874 6.135-1.036-2.193-2.9-3.858-5.165-4.639 1.247-1.101 2.039-2.706 2.039-4.496 0-3.309-2.691-6-6-6s-6 2.691-6 6c0 1.79.792 3.395 2.04 4.495-2.265.782-4.13 2.446-5.165 4.639-1.183-1.753-1.875-3.864-1.875-6.134 0-6.065 4.935-11 11-11zm-4 8c0-2.206 1.794-4 4-4s4 1.794 4 4-1.794 4-4 4-4-1.794-4-4zm-3.65 10.888c.914-2.897 3.563-4.888 6.65-4.888h2c3.087 0 5.736 1.992 6.65 4.888-1.981 1.922-4.678 3.112-7.65 3.112s-5.668-1.19-7.65-3.112z" data-original="#000000" class="active-path" data-old_color="#000000" fill="#001953"/></g> </svg>
