<?xml version="1.0"?>
<svg xmlns="http://www.w3.org/2000/svg" id="Capa_1" enable-background="new 0 0 512.002 512.002" height="512px" viewBox="0 0 512.002 512.002" width="512px" class=""><g><path d="m450.208 491.333v-37.162c0-4.142-3.357-7.5-7.5-7.5s-7.5 3.358-7.5 7.5v37.162c0 3.126-2.544 5.669-5.67 5.669h-45.388v-93.162c0-4.142-3.357-7.5-7.5-7.5s-7.5 3.358-7.5 7.5v93.162h-95.648c-4.143 0-7.5 3.358-7.5 7.5s3.357 7.5 7.5 7.5h156.037c11.397 0 20.669-9.272 20.669-20.669z" data-original="#000000" class="active-path" data-old_color="#000000" fill="#091E42"/><path d="m82.464 512.002h156.037c4.143 0 7.5-3.358 7.5-7.5s-3.357-7.5-7.5-7.5h-95.637v-93.162c0-4.142-3.357-7.5-7.5-7.5s-7.5 3.358-7.5 7.5v93.162h-45.4c-3.126 0-5.67-2.543-5.67-5.669v-96.625c0-29.309 20.79-48.533 34.808-54.336l57.697-22.367 40.545 47.077c5.595 6.495 14.872 7.671 21.782 3.474v64.613c0 7.238 5.889 13.127 13.127 13.127h22.508c7.238 0 13.127-5.889 13.127-13.127 0-7.037 0-57.633 0-64.613 6.906 4.194 16.184 3.025 21.782-3.474l40.528-47.058 57.706 22.349c17.308 7.161 34.804 28.104 34.804 54.335v24.464c0 4.142 3.357 7.5 7.5 7.5s7.5-3.358 7.5-7.5v-24.464c0-29.473-18.161-57.532-44.165-68.235-.048-.02-.097-.04-.146-.058l-101.986-39.499-.003-4.205c5.615-2.113 9.927-6.877 11.412-12.767h17.619c9.275 0 16.822-7.547 16.822-16.823v-23.237c3.587-.876 6.754-2.81 9.163-5.457h11.994c13.865 0 25.146-11.28 25.146-25.146v-38.898c0-13.866-11.28-25.146-25.146-25.146h-8.32v-13.302c0-24.53-8.378-48.083-23.707-67.014 7.057-8.811 4.793-18.981-1.91-24.351l-4.787-3.834c-43.089-34.514-106.236-36.776-151.976.033l-4.776 3.844c-6.54 5.262-9.095 15.358-1.862 24.348-15.61 19.275-24.144 43.253-24.144 68.215v12.06h-8.345c-13.866 0-25.146 11.281-25.146 25.146v38.898c0 13.866 11.28 25.146 25.146 25.146h11.994c3.342 3.673 8.143 5.996 13.488 5.996h6.873c2.286 0 4.467-.441 6.485-1.212 5.392 15.482 15.261 28.45 28.123 37.694v19.937c-1 .568-24.076 9.383-101.949 39.573-.048.019-.096.038-.144.057-21.272 8.754-44.167 33.841-44.167 68.235v96.625c0 11.399 9.273 20.671 20.67 20.671zm281.23-361.766h7.224c5.595 0 10.146 4.552 10.146 10.146v38.898c0 5.595-4.551 10.146-10.146 10.146h-7.225v-59.19zm-215.379 59.191h-7.225c-5.595 0-10.146-4.551-10.146-10.146v-38.898c0-5.595 4.552-10.146 10.146-10.146h7.224v59.19zm117.073 221.869h-18.762v-13.646h18.762zm0-28.646h-18.762v-46.919l9.381-8.242 9.381 8.242zm6.069-118.744h17.451l.003 3.18c.006 2.328.576 4.577 1.591 6.59l-34.495 28.985-34.498-28.988c1.009-2.005 1.544-4.256 1.544-6.65v-11.606c11.901 5.142 26.49 7.719 40.325 6.615 2.399 1.18 5.224 1.874 8.079 1.874zm-3.468-18.469v-7.007c0-1.879 1.587-3.468 3.468-3.468h25.974c1.888 0 3.468 1.602 3.468 3.468v7.007c0 1.88-1.588 3.468-3.468 3.468-8.977 0-17.065 0-25.974 0-1.846.001-3.468-1.582-3.468-3.468zm59.865 46.838-37.049 43.018c-.757.879-2.081.975-2.956.206-12.322-10.826-9.018-7.923-23.271-20.447l38.518-32.365zm6.907-59.154c0 1.005-.817 1.823-1.822 1.823h-15.922c6.654-7.613 11.723-16.314 15.044-25.739.872.334 1.77.616 2.7.814zm13.933-105.623v64.668c0 1.722-1.476 3.257-3.258 3.257h-6.873c-1.797 0-3.257-1.544-3.257-3.257 0-7.824 0-56.728 0-64.668 0-1.766 1.491-3.257 3.257-3.257h6.873c1.767-.001 3.258 1.519 3.258 3.257zm-163.849-105.199 4.777-3.844c39.128-31.488 93.9-31.486 133.192-.012l4.786 3.834h.001c.737.591.856 1.672.267 2.409l-7.669 9.573c-.596.744-1.67.856-2.408.265l-4.786-3.833c-33.252-26.635-80.334-26.738-113.546-.011l-4.777 3.845c-.738.593-1.813.48-2.41-.261l-7.688-9.555c-.59-.734-.485-1.809.261-2.41zm-8.143 169.866c0 1.698-1.444 3.257-3.257 3.257h-6.873c-1.766 0-3.258-1.519-3.258-3.257v-64.668c0-1.673 1.436-3.257 3.258-3.257h6.873c1.766 0 3.257 1.492 3.257 3.257zm-3.256-82.925h-6.873c-.724 0-1.435.054-2.137.136v-6.2c0-20.597 6.746-40.415 19.128-56.644 6.045 4.566 14.482 4.54 20.522-.322l4.777-3.844c27.821-22.388 66.791-22.374 94.765.033l4.785 3.833c6.102 4.888 14.537 4.812 20.513.283 12.089 15.88 18.671 35.265 18.671 55.419v7.446c-.71-.084-1.429-.14-2.161-.14h-6.873c-7.008 0-13.097 3.974-16.156 9.783-4.106-3.488-6.645-8.649-6.645-14.269 0-4.072-2.76-7.607-6.711-8.597-3.939-.99-8.037.824-9.953 4.409-7.574 14.167-22.243 22.969-38.282 22.969h-69.558c-1.817-8.166-9.108-14.295-17.812-14.295zm18.081 85.402c.078-.549.176-1.68.176-2.477v-53.63h69.112c16.732 0 32.356-7.116 43.281-19.193 3.354 6.957 9.048 12.671 16.21 16.009v56.814c0 .785.093 1.889.18 2.507-1.954 10.419-6.393 20.053-12.988 28.282-2.99-1.948-6.601-2.992-10.066-2.992h-25.974c-2.546 0-4.973.518-7.182 1.454-6.626 2.807-11.286 9.377-11.286 17.014v7.007c0 .581.029 1.157.083 1.73-31.248-1.662-55.991-22.85-61.546-52.525zm17.358 88.016 38.551 32.394c-21.274 18.692-9.441 8.295-23.271 20.446-.875.77-2.199.674-2.956-.205l-37.069-43.042z" data-original="#000000" class="active-path" data-old_color="#000000" fill="#091E42"/></g> </svg>
