<?xml version="1.0"?>
<svg xmlns="http://www.w3.org/2000/svg" height="512px" viewBox="0 0 1236.8841 1236" width="512px" class=""><g><g fill="#231f20"><path d="m1175.039062.441406h-1113.195312c-34.152344 0-61.84375 27.6875-61.84375 61.84375v742.132813c0 34.15625 27.691406 61.84375 61.84375 61.84375h350.449219c56.902343.066406 103.007812 46.175781 103.074219 103.074219-.101563 56.882812-46.1875 102.96875-103.074219 103.070312-.285157 0-.515625.148438-.804688.167969-1.496093.117187-2.976562.414062-4.410156.886719-1.144531.222656-2.265625.535156-3.359375.929687-1.191406.648437-2.316406 1.40625-3.363281 2.261719-1.066407.691406-2.074219 1.472656-3.003907 2.335937-.765624.921875-1.460937 1.90625-2.066406 2.945313-.882812 1.210937-1.628906 2.519531-2.222656 3.894531 0 .25-.289062.410156-.371094.679687l-41.230468 123.6875c-3.597657 10.804688 2.246093 22.480469 13.046874 26.078126 2.113282.703124 4.328126 1.058593 6.558594 1.050781h494.753906c11.382813-.007813 20.609376-9.242188 20.597657-20.628907 0-2.210937-.355469-4.402343-1.054688-6.5l-41.226562-123.6875c0-.269531-.289063-.429687-.371094-.679687-.597656-1.371094-1.34375-2.667969-2.226563-3.875-.605468-1.046875-1.292968-2.039063-2.066406-2.964844-.929687-.863281-1.941406-1.644531-3.007812-2.335937-1.046875-.855469-2.167969-1.613282-3.359375-2.261719-1.09375-.394531-2.21875-.707031-3.363281-.929687-1.429688-.46875-2.90625-.769532-4.410157-.886719-.289062 0-.511719-.167969-.800781-.167969-56.886719-.101562-102.972656-46.1875-103.074219-103.070312.070313-56.898438 46.171875-103.007813 103.074219-103.074219h350.507812c34.160157 0 61.84375-27.6875 61.84375-61.84375v-742.132813c0-34.15625-27.683593-61.84375-61.84375-61.84375zm-494.753906 968.894532c.097656 73.792968 55.792969 135.664062 129.175782 143.496093l27.746093 83.265625h-437.527343l27.75-83.265625c73.378906-7.832031 129.070312-69.695312 129.167968-143.496093.011719-38.824219-15.683594-76.003907-43.519531-103.074219h210.726563c-27.832032 27.070312-43.527344 64.25-43.519532 103.074219zm515.371094-164.917969c0 11.382812-9.230469 20.613281-20.617188 20.613281h-1113.195312c-11.386719 0-20.613281-9.230469-20.613281-20.613281v-61.84375h1154.425781zm-1154.425781-103.074219v-639.058594c0-11.386718 9.226562-20.613281 20.613281-20.613281h1113.195312c11.386719 0 20.617188 9.226563 20.617188 20.613281v639.058594zm0 0" data-original="#000000" class="active-path" data-old_color="#000000" fill="#001953"/><path d="m872.335938 310.738281-59.351563-19.796875 27.972656-55.988281c3.964844-7.933594 2.402344-17.519531-3.875-23.785156l-58.300781-58.300781c-6.265625-6.277344-15.851562-7.839844-23.785156-3.875l-55.992188 27.972656-19.792968-59.351563c-2.800782-8.410156-10.671876-14.085937-19.539063-14.097656h-82.460937c-8.867188.003906-16.738282 5.6875-19.539063 14.097656l-19.789063 59.351563-55.992187-27.972656c-7.9375-3.964844-17.515625-2.402344-23.789063 3.875l-58.296874 58.300781c-6.273438 6.269531-7.835938 15.851562-3.878907 23.785156l27.972657 55.988281-59.34375 19.796875c-8.417969 2.800781-14.09375 10.667969-14.105469 19.539063v82.460937c.011719 8.867188 5.6875 16.738281 14.105469 19.539063l59.34375 19.789062-27.972657 55.992188c-3.957031 7.9375-2.394531 17.523437 3.878907 23.789062l58.296874 58.300782c6.273438 6.277343 15.851563 7.832031 23.789063 3.875l55.992187-27.972657 19.789063 59.347657c2.800781 8.414062 10.671875 14.089843 19.539063 14.101562h82.460937c8.867187-.007812 16.738281-5.6875 19.546875-14.101562l19.789062-59.347657 55.988282 27.972657c7.933594 3.957031 17.519531 2.402343 23.785156-3.875l58.300781-58.300782c6.277344-6.273437 7.839844-15.851562 3.875-23.789062l-27.972656-55.992188 59.351563-19.789062c8.410156-2.800782 14.09375-10.671875 14.097656-19.539063v-82.460937c-.003906-8.867188-5.6875-16.738282-14.097656-19.539063zm-27.132813 87.136719-67.820313 22.675781c-10.800781 3.605469-16.628906 15.285157-13.023437 26.085938.308594.910156.675781 1.804687 1.109375 2.667969l31.972656 63.910156-37.292968 37.289062-63.902344-31.96875c-10.167969-5.136718-22.5625-1.054687-27.695313 9.105469-.457031.902344-.847656 1.84375-1.167969 2.804687l-22.570312 67.824219h-52.734375l-22.675781-67.824219c-3.605469-10.800781-15.285156-16.625-26.085938-13.019531-.914062.308594-1.808594.671875-2.671875 1.109375l-63.90625 31.96875-37.289062-37.289062 31.972656-63.90625c5.085937-10.1875.945313-22.566406-9.238281-27.652344-.867188-.425781-1.761719-.796875-2.675782-1.105469l-67.824218-22.675781v-52.730469l67.824218-22.679687c10.800782-3.601563 16.628907-15.28125 13.019532-26.082032-.304688-.917968-.671875-1.808593-1.105469-2.671874l-31.972656-63.90625 37.289062-37.289063 63.90625 31.96875c10.191407 5.085937 22.566407.949219 27.652344-9.242187.429687-.863282.800781-1.757813 1.105469-2.667969l22.675781-67.824219h52.734375l22.675781 67.824219c3.582031 10.804687 15.246094 16.660156 26.054688 13.078125.960937-.316406 1.898437-.707032 2.804687-1.167969l63.910156-31.96875 37.289063 37.289063-31.976563 63.90625c-5.078124 10.1875-.945312 22.566406 9.242188 27.648437.867188.429687 1.757812.800781 2.675781 1.109375l67.824219 22.675781zm0 0" data-original="#000000" class="active-path" data-old_color="#000000" fill="#001953"/><path d="m618.441406 247.820312c-68.308594 0-123.6875 55.375-123.6875 123.6875 0 68.308594 55.378906 123.6875 123.6875 123.6875 68.3125 0 123.6875-55.378906 123.6875-123.6875-.066406-68.28125-55.40625-123.621093-123.6875-123.6875zm0 206.144532c-45.539062 0-82.457031-36.917969-82.457031-82.457032 0-45.542968 36.917969-82.460937 82.457031-82.460937 45.542969 0 82.460938 36.917969 82.460938 82.460937 0 45.539063-36.917969 82.457032-82.460938 82.457032zm0 0" data-original="#000000" class="active-path" data-old_color="#000000" fill="#001953"/></g></g> </svg>
