<?xml version="1.0"?>
<svg xmlns="http://www.w3.org/2000/svg" id="Layer_5" enable-background="new 0 0 64 64" height="512px" viewBox="0 0 64 64" width="512px"><g><path d="m21 14c0 1.654 1.346 3 3 3s3-1.346 3-3-1.346-3-3-3-3 1.346-3 3zm3-1c.551 0 1 .449 1 1s-.449 1-1 1-1-.449-1-1 .449-1 1-1z" data-original="#000000" class="active-path" data-old_color="#000000" fill="#091E42"/><path d="m41 11h2v6h-2z" data-original="#000000" class="active-path" data-old_color="#000000" fill="#091E42"/><path d="m37 11h2v6h-2z" data-original="#000000" class="active-path" data-old_color="#000000" fill="#091E42"/><path d="m40 23c-1.654 0-3 1.346-3 3s1.346 3 3 3 3-1.346 3-3-1.346-3-3-3zm0 4c-.551 0-1-.449-1-1s.449-1 1-1 1 .449 1 1-.449 1-1 1z" data-original="#000000" class="active-path" data-old_color="#000000" fill="#091E42"/><path d="m21 23h2v6h-2z" data-original="#000000" class="active-path" data-old_color="#000000" fill="#091E42"/><path d="m25 23h2v6h-2z" data-original="#000000" class="active-path" data-old_color="#000000" fill="#091E42"/><path d="m5 43.184v-11.184h-2v11.184c-1.161.414-2 1.514-2 2.816 0 1.654 1.346 3 3 3s3-1.346 3-3c0-1.302-.839-2.402-2-2.816zm-1 3.816c-.551 0-1-.449-1-1s.449-1 1-1 1 .449 1 1-.449 1-1 1z" data-original="#000000" class="active-path" data-old_color="#000000" fill="#091E42"/><path d="m11 33v5.184c-1.161.414-2 1.514-2 2.816 0 1.654 1.346 3 3 3s3-1.346 3-3c0-1.302-.839-2.402-2-2.816v-5.184zm1 9c-.551 0-1-.449-1-1s.449-1 1-1 1 .449 1 1-.449 1-1 1z" data-original="#000000" class="active-path" data-old_color="#000000" fill="#091E42"/><path d="m61 38.816c1.161-.414 2-1.514 2-2.816 0-1.654-1.346-3-3-3s-3 1.346-3 3c0 1.302.839 2.402 2 2.816v7.706c-1.431-.96-3.151-1.522-5-1.522-.052 0-.104 0-.157.001-.156-1.089-.451-2.13-.843-3.121v-9.064c1.161-.414 2-1.514 2-2.816 0-1.654-1.346-3-3-3s-3 1.346-3 3c0 1.302.839 2.402 2 2.816v5.571c-1.1-1.401-2.458-2.586-4-3.485v-9.902h9c1.654 0 3-1.346 3-3v-15.184c1.161-.414 2-1.514 2-2.816 0-1.654-1.346-3-3-3s-3 1.346-3 3c0 1.302.839 2.402 2 2.816v15.184c0 .551-.449 1-1 1h-9v-4h3c1.654 0 3-1.346 3-3v-1.184c1.161-.414 2-1.514 2-2.816 0-1.654-1.346-3-3-3s-3 1.346-3 3c0 1.302.839 2.402 2 2.816v1.184c0 .551-.449 1-1 1h-3v-5c0-2.757-2.243-5-5-5h-6.539c-2.624-3.757-6.856-6-11.461-6-6.97 0-12.866 5.195-13.843 12.001-.053-.001-.105-.001-.157-.001-4.962 0-9 4.038-9 9s4.038 9 9 9h7v12.877c-.189.368-.355.751-.494 1.149-.168-.01-.335-.026-.506-.026-4.962 0-9 4.038-9 9s4.038 9 9 9h38c4.962 0 9-4.038 9-9 0-2.136-.752-4.099-2-5.644zm-9-9.816c.551 0 1 .449 1 1s-.449 1-1 1-1-.449-1-1 .449-1 1-1zm6-26c.551 0 1 .449 1 1s-.449 1-1 1-1-.449-1-1 .449-1 1-1zm-6 8c.551 0 1 .449 1 1s-.449 1-1 1-1-.449-1-1 .449-1 1-1zm8 24c.551 0 1 .449 1 1s-.449 1-1 1-1-.449-1-1 .449-1 1-1zm-20-2c-4.846 0-9.315 2.499-11.868 6.574-.444-.165-.9-.304-1.373-.398.155-.362.241-.759.241-1.176 0-1.654-1.346-3-3-3s-3 1.346-3 3c0 .63.197 1.214.53 1.697-.93.387-1.785.925-2.53 1.591v-8.288h21 5v.933c-1.558-.602-3.245-.933-5-.933zm-17 5c0-.551.449-1 1-1s1 .449 1 1-.449 1-1 1-1-.449-1-1zm-4-17h26v10h-26zm26-9v7h-26v-7c0-1.654 1.346-3 3-3h20c1.654 0 3 1.346 3 3zm-35 17c-3.86 0-7-3.14-7-7s3.14-7 7-7c.272 0 .563.021.917.068l1.052.137.075-1.059c.441-6.25 5.692-11.146 11.956-11.146 3.455 0 6.664 1.476 8.922 4h-10.922c-2.757 0-5 2.243-5 5v17zm44 32h-38c-3.86 0-7-3.14-7-7s3.14-7 7-7 7 3.14 7 7h2c0-4.086-2.74-7.539-6.476-8.633 1.056-2.611 3.584-4.367 6.476-4.367 3.86 0 7 3.14 7 7h2c0-3.135-1.613-5.897-4.051-7.509 2.204-3.398 5.961-5.491 10.051-5.491 6.264 0 11.515 4.896 11.956 11.146l.075 1.059 1.052-.137c.354-.047.645-.068.917-.068 3.86 0 7 3.14 7 7s-3.14 7-7 7z" data-original="#000000" class="active-path" data-old_color="#000000" fill="#091E42"/><path d="m40 37v2c4.411 0 8 3.589 8 8h2c0-5.514-4.486-10-10-10z" data-original="#000000" class="active-path" data-old_color="#000000" fill="#091E42"/><path d="m13 54c0-1.654 1.346-3 3-3v-2c-2.757 0-5 2.243-5 5s2.243 5 5 5h14v-2h-14c-1.654 0-3-1.346-3-3z" data-original="#000000" class="active-path" data-old_color="#000000" fill="#091E42"/><path d="m32 57h2v2h-2z" data-original="#000000" class="active-path" data-old_color="#000000" fill="#091E42"/><path d="m36 57h2v2h-2z" data-original="#000000" class="active-path" data-old_color="#000000" fill="#091E42"/><path d="m55 50v2c1.103 0 2 .897 2 2h2c0-2.206-1.794-4-4-4z" data-original="#000000" class="active-path" data-old_color="#000000" fill="#091E42"/><path d="m7 22h-2c0 2.757 2.243 5 5 5h1v-2h-1c-1.654 0-3-1.346-3-3z" data-original="#000000" class="active-path" data-old_color="#000000" fill="#091E42"/><path d="m13 25h2v2h-2z" data-original="#000000" class="active-path" data-old_color="#000000" fill="#091E42"/></g> </svg>
