<?xml version="1.0"?>
<svg xmlns="http://www.w3.org/2000/svg" height="512px" viewBox="0 0 512 512" width="512px"><g><path d="m350.472656 0c-89.066406 0-161.523437 72.460938-161.523437 161.527344 0 32.808594 9.832031 63.359375 26.703125 88.871094l-18.269532 18.265624 10.605469 10.609376 15.898438-15.898438 24.738281 24.734375-15.898438 15.898437 10.605469 10.605469 18.269531-18.265625c25.507813 16.871094 56.0625 26.703125 88.871094 26.703125 89.066406 0 161.527344-72.460937 161.527344-161.523437 0-89.066406-72.460938-161.527344-161.527344-161.527344zm0 308.050781c-80.792968 0-146.523437-65.730469-146.523437-146.523437 0-80.796875 65.730469-146.527344 146.523437-146.527344 80.796875 0 146.527344 65.730469 146.527344 146.527344 0 80.792968-65.730469 146.523437-146.527344 146.523437zm0 0" data-original="#000000" class="active-path" data-old_color="#000000" fill="#001953"/><path d="m350.472656 41.5c-66.183594 0-120.023437 53.84375-120.023437 120.027344 0 66.179687 53.84375 120.023437 120.023437 120.023437 66.183594 0 120.027344-53.839843 120.027344-120.023437s-53.84375-120.027344-120.027344-120.027344zm0 225.050781c-57.910156 0-105.023437-47.113281-105.023437-105.023437 0-57.914063 47.113281-105.027344 105.023437-105.027344 57.914063 0 105.027344 47.113281 105.027344 105.027344 0 57.910156-47.113281 105.023437-105.027344 105.023437zm0 0" data-original="#000000" class="active-path" data-old_color="#000000" fill="#001953"/><path d="m0 447.609375v35.980469l28.410156 28.410156h35.980469l179.324219-179.324219-64.390625-64.390625zm58.179688 49.390625h-23.554688l-19.625-19.625v-23.554688l7.167969-7.164062 27.855469 27.855469 10.605468-10.605469-27.855468-27.855469 146.550781-146.554687 43.179687 43.179687zm0 0" data-original="#000000" class="active-path" data-old_color="#000000" fill="#001953"/><path d="m409.261719 193.222656 19.347656-72.289062h-121.703125l-3.988281-14.933594h-36.445313v15h24.925782l24.480468 91.632812h2.792969c-.613281 1.980469-.945313 4.085938-.945313 6.265626 0 11.730468 9.542969 21.269531 21.265626 21.269531 11.726562 0 21.269531-9.539063 21.269531-21.269531 0-2.179688-.332031-4.28125-.945313-6.265626h15.046875c-.609375 1.980469-.941406 4.085938-.941406 6.265626 0 11.730468 9.539063 21.269531 21.265625 21.269531s21.265625-9.539063 21.265625-21.269531c0-11.722657-9.539063-21.265626-21.265625-21.265626h-67.289062l-1.179688-4.410156zm-57.785157-15v-13.644531h17.042969v13.644531zm32.042969 0v-13.644531h17.878907l-3.652344 13.644531zm25.546875-42.289062-3.652344 13.644531h-21.894531v-13.644531zm-40.546875 0v13.644531h-17.042969v-13.644531zm-32.042969 0v13.644531h-21.890624l-3.652344-13.644531zm8.785157 82.964844c0 3.457031-2.8125 6.265624-6.269531 6.265624-3.453126 0-6.265626-2.808593-6.265626-6.265624 0-3.453126 2.8125-6.265626 6.265626-6.265626 3.457031 0 6.269531 2.8125 6.269531 6.265626zm55.691406 0c0 3.457031-2.808594 6.265624-6.265625 6.265624-3.453125 0-6.265625-2.808593-6.265625-6.265624 0-3.453126 2.8125-6.265626 6.265625-6.265626 3.457031 0 6.265625 2.8125 6.265625 6.265626zm-78.703125-40.675782-3.652344-13.644531h17.878906v13.644531zm0 0" data-original="#000000" class="active-path" data-old_color="#000000" fill="#001953"/><path d="m476.636719 161.527344c0-52.1875-31.429688-98.285156-80.070313-117.445313l5.496094-13.957031c26.085938 10.273438 48.363281 27.933594 64.429688 51.0625 16.449218 23.6875 25.144531 51.46875 25.144531 80.339844zm-88.980469-120.574219c-4.488281-1.386719-9.105469-2.53125-13.726562-3.402344l2.78125-14.742187c5.175781.976562 10.347656 2.261718 15.378906 3.816406zm-23.054688-4.804687c-4.65625-.519532-9.410156-.785157-14.128906-.785157v-15c5.273438 0 10.589844.296875 15.796875.878907zm0 0" data-original="#000000" class="active-path" data-old_color="#000000" fill="#001953"/><path d="m75.089844 429.089844-10.605469-10.605469 10.605469-10.605469 10.605468 10.605469zm17.675781-17.679688-10.605469-10.605468 10.605469-10.605469 10.605469 10.605469zm17.679687-17.675781-10.605468-10.605469 74.183594-74.1875 10.605468 10.609375zm0 0" data-original="#000000" class="active-path" data-old_color="#000000" fill="#001953"/></g> </svg>
